<svg xmlns="http://www.w3.org/2000/svg" viewBox="0 0 24 24" width="24" height="24" fill="currentColor">
  <path d="M20.57,10.66C20.43,10.26 20.05,10 19.6,10H12.41C11.95,10 11.58,10.26 11.43,10.66L10,14.77V19.28C10,19.66 10.32,20 10.7,20H11.32C11.7,20 12,19.62 12,19.24V18H20V19.24C20,19.62 20.31,20 20.69,20H21.3C21.68,20 22,19.66 22,19.28V14.77L20.57,10.66M12.41,11H19.6L20.63,14H11.38L12.41,11M12,17A1,1 0 0,1 11,16A1,1 0 0,1 12,15A1,1 0 0,1 13,16A1,1 0 0,1 12,17M20,17A1,1 0 0,1 19,16A1,1 0 0,1 20,15A1,1 0 0,1 21,16A1,1 0 0,1 20,17M6.85,7.76C9.18,4.3 9.95,2.5 9.95,2.5C10.23,2 10.62,2 10.9,2.5C10.9,2.5 11.67,4.3 14,7.76C16.33,11.22 16,13 16,13H13.95L13.67,12.5C13.67,12.5 13.67,11.64 12.13,9.35C10.59,7.05 9.95,6.5 9.95,6.5L8.31,9.35C6.77,11.64 6.77,12.5 6.77,12.5L6.5,13H4.5C4.5,13 4.17,11.22 6.85,7.76Z" />
</svg>